<svg id="visual" viewBox="0 0 960 540" width="960" height="540" xmlns="http://www.w3.org/2000/svg" xmlns:xlink="http://www.w3.org/1999/xlink" version="1.1"><path d="M0 355L8.8 354.7C17.7 354.3 35.3 353.7 53.2 352.2C71 350.7 89 348.3 106.8 346.7C124.7 345 142.3 344 160 343.7C177.7 343.3 195.3 343.7 213.2 344.2C231 344.7 249 345.3 266.8 346.5C284.7 347.7 302.3 349.3 320 349.5C337.7 349.7 355.3 348.3 373.2 347.8C391 347.3 409 347.7 426.8 349C444.7 350.3 462.3 352.7 480 353.7C497.7 354.7 515.3 354.3 533.2 354.3C551 354.3 569 354.7 586.8 354.3C604.7 354 622.3 353 640 352.3C657.7 351.7 675.3 351.3 693.2 351.3C711 351.3 729 351.7 746.8 351.8C764.7 352 782.3 352 800 352.2C817.7 352.3 835.3 352.7 853.2 353.7C871 354.7 889 356.3 906.8 355.7C924.7 355 942.3 352 951.2 350.5L960 349L960 541L951.2 541C942.3 541 924.7 541 906.8 541C889 541 871 541 853.2 541C835.3 541 817.7 541 800 541C782.3 541 764.7 541 746.8 541C729 541 711 541 693.2 541C675.3 541 657.7 541 640 541C622.3 541 604.7 541 586.8 541C569 541 551 541 533.2 541C515.3 541 497.7 541 480 541C462.3 541 444.7 541 426.8 541C409 541 391 541 373.2 541C355.3 541 337.7 541 320 541C302.3 541 284.7 541 266.8 541C249 541 231 541 213.2 541C195.3 541 177.7 541 160 541C142.3 541 124.7 541 106.8 541C89 541 71 541 53.2 541C35.3 541 17.7 541 8.8 541L0 541Z" fill="#fa7268"></path><path d="M0 379L8.8 379.8C17.7 380.7 35.3 382.3 53.2 381.5C71 380.7 89 377.3 106.8 375.5C124.7 373.7 142.3 373.3 160 373.5C177.7 373.7 195.3 374.3 213.2 374.3C231 374.3 249 373.7 266.8 373.2C284.7 372.7 302.3 372.3 320 372.3C337.7 372.3 355.3 372.7 373.2 373.3C391 374 409 375 426.8 376.5C444.7 378 462.3 380 480 381.2C497.7 382.3 515.3 382.7 533.2 380.5C551 378.3 569 373.7 586.8 373.3C604.7 373 622.3 377 640 378.8C657.7 380.7 675.3 380.3 693.2 380.2C711 380 729 380 746.8 378.2C764.7 376.3 782.3 372.7 800 371.8C817.7 371 835.3 373 853.2 373.5C871 374 889 373 906.8 373.2C924.7 373.3 942.3 374.7 951.2 375.3L960 376L960 541L951.2 541C942.3 541 924.7 541 906.8 541C889 541 871 541 853.2 541C835.3 541 817.7 541 800 541C782.3 541 764.7 541 746.8 541C729 541 711 541 693.2 541C675.3 541 657.7 541 640 541C622.3 541 604.7 541 586.8 541C569 541 551 541 533.2 541C515.3 541 497.7 541 480 541C462.3 541 444.7 541 426.8 541C409 541 391 541 373.2 541C355.3 541 337.7 541 320 541C302.3 541 284.7 541 266.8 541C249 541 231 541 213.2 541C195.3 541 177.7 541 160 541C142.3 541 124.7 541 106.8 541C89 541 71 541 53.2 541C35.3 541 17.7 541 8.8 541L0 541Z" fill="#f36567"></path><path d="M0 403L8.8 403.2C17.7 403.3 35.3 403.7 53.2 403.3C71 403 89 402 106.8 401.3C124.7 400.7 142.3 400.3 160 400C177.7 399.7 195.3 399.3 213.2 400.3C231 401.3 249 403.7 266.8 404C284.7 404.3 302.3 402.7 320 401.7C337.7 400.7 355.3 400.3 373.2 402.2C391 404 409 408 426.8 409.7C444.7 411.3 462.3 410.7 480 408.3C497.7 406 515.3 402 533.2 401.3C551 400.7 569 403.3 586.8 404.2C604.7 405 622.3 404 640 402.7C657.7 401.3 675.3 399.7 693.2 401.2C711 402.7 729 407.3 746.8 407.5C764.7 407.7 782.3 403.3 800 401.8C817.7 400.3 835.3 401.7 853.2 403.7C871 405.7 889 408.3 906.8 408.8C924.7 409.3 942.3 407.7 951.2 406.8L960 406L960 541L951.2 541C942.3 541 924.7 541 906.8 541C889 541 871 541 853.2 541C835.3 541 817.7 541 800 541C782.3 541 764.7 541 746.8 541C729 541 711 541 693.2 541C675.3 541 657.7 541 640 541C622.3 541 604.7 541 586.8 541C569 541 551 541 533.2 541C515.3 541 497.7 541 480 541C462.3 541 444.7 541 426.8 541C409 541 391 541 373.2 541C355.3 541 337.7 541 320 541C302.3 541 284.7 541 266.8 541C249 541 231 541 213.2 541C195.3 541 177.7 541 160 541C142.3 541 124.7 541 106.8 541C89 541 71 541 53.2 541C35.3 541 17.7 541 8.8 541L0 541Z" fill="#eb5967"></path><path d="M0 434L8.8 432.3C17.7 430.7 35.3 427.3 53.2 425.8C71 424.3 89 424.7 106.8 425C124.7 425.3 142.3 425.7 160 426.8C177.7 428 195.3 430 213.2 430.7C231 431.3 249 430.7 266.8 430.5C284.7 430.3 302.3 430.7 320 431.8C337.7 433 355.3 435 373.2 434.8C391 434.7 409 432.3 426.8 432.2C444.7 432 462.3 434 480 435.2C497.7 436.3 515.3 436.7 533.2 435.8C551 435 569 433 586.8 432.2C604.7 431.3 622.3 431.7 640 433C657.7 434.3 675.3 436.7 693.2 436.2C711 435.7 729 432.3 746.8 431.7C764.7 431 782.3 433 800 433C817.7 433 835.3 431 853.2 430.3C871 429.7 889 430.3 906.8 429.7C924.7 429 942.3 427 951.2 426L960 425L960 541L951.2 541C942.3 541 924.7 541 906.8 541C889 541 871 541 853.2 541C835.3 541 817.7 541 800 541C782.3 541 764.7 541 746.8 541C729 541 711 541 693.2 541C675.3 541 657.7 541 640 541C622.3 541 604.7 541 586.8 541C569 541 551 541 533.2 541C515.3 541 497.7 541 480 541C462.3 541 444.7 541 426.8 541C409 541 391 541 373.2 541C355.3 541 337.7 541 320 541C302.3 541 284.7 541 266.8 541C249 541 231 541 213.2 541C195.3 541 177.7 541 160 541C142.3 541 124.7 541 106.8 541C89 541 71 541 53.2 541C35.3 541 17.7 541 8.8 541L0 541Z" fill="#e34c67"></path><path d="M0 459L8.8 458C17.7 457 35.3 455 53.2 454.2C71 453.3 89 453.7 106.8 454C124.7 454.3 142.3 454.7 160 455.2C177.7 455.7 195.3 456.3 213.2 457.2C231 458 249 459 266.8 458.2C284.7 457.3 302.3 454.7 320 454.3C337.7 454 355.3 456 373.2 457.8C391 459.7 409 461.3 426.8 462.5C444.7 463.7 462.3 464.3 480 464.3C497.7 464.3 515.3 463.7 533.2 463.8C551 464 569 465 586.8 463.8C604.7 462.7 622.3 459.3 640 458.7C657.7 458 675.3 460 693.2 461.3C711 462.7 729 463.3 746.8 463.7C764.7 464 782.3 464 800 464.3C817.7 464.7 835.3 465.3 853.2 463.7C871 462 889 458 906.8 455.5C924.7 453 942.3 452 951.2 451.5L960 451L960 541L951.2 541C942.3 541 924.7 541 906.8 541C889 541 871 541 853.2 541C835.3 541 817.7 541 800 541C782.3 541 764.7 541 746.8 541C729 541 711 541 693.2 541C675.3 541 657.7 541 640 541C622.3 541 604.7 541 586.8 541C569 541 551 541 533.2 541C515.3 541 497.7 541 480 541C462.3 541 444.7 541 426.8 541C409 541 391 541 373.2 541C355.3 541 337.7 541 320 541C302.3 541 284.7 541 266.8 541C249 541 231 541 213.2 541C195.3 541 177.7 541 160 541C142.3 541 124.7 541 106.8 541C89 541 71 541 53.2 541C35.3 541 17.7 541 8.8 541L0 541Z" fill="#da3f67"></path><path d="M0 483L8.8 483.7C17.7 484.3 35.3 485.7 53.2 485.5C71 485.3 89 483.7 106.8 483.5C124.7 483.3 142.3 484.7 160 484.5C177.7 484.3 195.3 482.7 213.2 482.3C231 482 249 483 266.8 483.7C284.7 484.3 302.3 484.7 320 485.7C337.7 486.7 355.3 488.3 373.2 489.3C391 490.3 409 490.7 426.8 490C444.7 489.3 462.3 487.7 480 487C497.7 486.3 515.3 486.7 533.2 485.7C551 484.7 569 482.3 586.8 481.5C604.7 480.7 622.3 481.3 640 482C657.7 482.7 675.3 483.3 693.2 484.7C711 486 729 488 746.8 488.7C764.7 489.3 782.3 488.7 800 489.2C817.7 489.7 835.3 491.3 853.2 491.7C871 492 889 491 906.8 489.2C924.7 487.3 942.3 484.7 951.2 483.3L960 482L960 541L951.2 541C942.3 541 924.7 541 906.8 541C889 541 871 541 853.2 541C835.3 541 817.7 541 800 541C782.3 541 764.7 541 746.8 541C729 541 711 541 693.2 541C675.3 541 657.7 541 640 541C622.3 541 604.7 541 586.8 541C569 541 551 541 533.2 541C515.3 541 497.7 541 480 541C462.3 541 444.7 541 426.8 541C409 541 391 541 373.2 541C355.3 541 337.7 541 320 541C302.3 541 284.7 541 266.8 541C249 541 231 541 213.2 541C195.3 541 177.7 541 160 541C142.3 541 124.7 541 106.8 541C89 541 71 541 53.2 541C35.3 541 17.7 541 8.8 541L0 541Z" fill="#d03267"></path><path d="M0 509L8.8 510.3C17.7 511.7 35.3 514.3 53.2 516.2C71 518 89 519 106.8 518.8C124.7 518.7 142.3 517.3 160 515.8C177.7 514.3 195.3 512.7 213.2 512.2C231 511.7 249 512.3 266.8 512.3C284.7 512.3 302.3 511.7 320 512.2C337.7 512.7 355.3 514.3 373.2 513.5C391 512.7 409 509.3 426.8 508.2C444.7 507 462.3 508 480 507.7C497.7 507.3 515.3 505.7 533.2 506.3C551 507 569 510 586.8 511.7C604.7 513.3 622.3 513.7 640 512.5C657.7 511.3 675.3 508.7 693.2 508.5C711 508.3 729 510.7 746.8 510.8C764.7 511 782.3 509 800 508C817.7 507 835.3 507 853.2 507.7C871 508.3 889 509.7 906.8 509.2C924.7 508.7 942.3 506.3 951.2 505.2L960 504L960 541L951.2 541C942.3 541 924.7 541 906.8 541C889 541 871 541 853.2 541C835.3 541 817.7 541 800 541C782.3 541 764.7 541 746.8 541C729 541 711 541 693.2 541C675.3 541 657.7 541 640 541C622.3 541 604.7 541 586.8 541C569 541 551 541 533.2 541C515.3 541 497.7 541 480 541C462.3 541 444.7 541 426.8 541C409 541 391 541 373.2 541C355.3 541 337.7 541 320 541C302.3 541 284.7 541 266.8 541C249 541 231 541 213.2 541C195.3 541 177.7 541 160 541C142.3 541 124.7 541 106.8 541C89 541 71 541 53.2 541C35.3 541 17.7 541 8.8 541L0 541Z" fill="#c62368"></path></svg>